# xmcd CD database file
#
# Track frame offsets:
#	150
#	18427
#	34851
#	53066
#
# Disc length: 921 seconds
#
# Revision: 1
# Processed by: cddbd v1.5.1PL0 Copyright (c) Steve Scherf et al.
# Submitted via: CDex 1.51
#
DISCID=29039704
DTITLE=クローバー - ＩＺＵＭＯ-猛き剣の閃記-
DYEAR=2005
DGENRE=Game
TTITLE0=最新Dream
TTITLE1=それだLove!!
TTITLE2=最新Dream(off vocal)
TTITLE3=それだLove!!（off vocal）
EXTD=YEAR: 2005
EXTT0=
EXTT1=
EXTT2=
EXTT3=
PLAYORDER=
